<mxfile host="Electron" modified="2024-02-13T22:52:52.822Z" agent="Mozilla/5.0 (Windows NT 10.0; Win64; x64) AppleWebKit/537.36 (KHTML, like Gecko) draw.io/23.0.2 Chrome/120.0.6099.109 Electron/28.1.0 Safari/537.36" etag="5J0RiRG1dKY966qCSb4w" version="23.0.2" type="device">
  <diagram name="Página-1" id="M7xr3wcyRH4fqapJd69M">
    <mxGraphModel dx="1450" dy="1029" grid="0" gridSize="10" guides="1" tooltips="1" connect="1" arrows="1" fold="1" page="0" pageScale="1" pageWidth="827" pageHeight="1169" background="none" math="0" shadow="1">
      <root>
        <mxCell id="0" />
        <mxCell id="1" parent="0" />
        <mxCell id="8EH5IGFYuP0Oyn6NS1UA-30" value="" style="rounded=0;whiteSpace=wrap;html=1;fillColor=none;strokeColor=#FFFFFF;strokeWidth=4;" parent="1" vertex="1">
          <mxGeometry x="121" y="8" width="560" height="616" as="geometry" />
        </mxCell>
        <mxCell id="8EH5IGFYuP0Oyn6NS1UA-1" value="Solicitud de alquiler" style="ellipse;whiteSpace=wrap;html=1;" parent="1" vertex="1">
          <mxGeometry x="264" y="227" width="120" height="80" as="geometry" />
        </mxCell>
        <mxCell id="8EH5IGFYuP0Oyn6NS1UA-2" value="Solicitud de limpieza" style="ellipse;whiteSpace=wrap;html=1;" parent="1" vertex="1">
          <mxGeometry x="436" y="229" width="120" height="80" as="geometry" />
        </mxCell>
        <mxCell id="8EH5IGFYuP0Oyn6NS1UA-9" value="" style="rounded=0;orthogonalLoop=1;jettySize=auto;html=1;dashed=1;" parent="1" source="8EH5IGFYuP0Oyn6NS1UA-3" target="8EH5IGFYuP0Oyn6NS1UA-4" edge="1">
          <mxGeometry relative="1" as="geometry" />
        </mxCell>
        <mxCell id="8EH5IGFYuP0Oyn6NS1UA-3" value="Gestión de descuento" style="ellipse;whiteSpace=wrap;html=1;" parent="1" vertex="1">
          <mxGeometry x="388" y="422" width="120" height="80" as="geometry" />
        </mxCell>
        <mxCell id="8EH5IGFYuP0Oyn6NS1UA-4" value="Facturación de alquiler" style="ellipse;whiteSpace=wrap;html=1;" parent="1" vertex="1">
          <mxGeometry x="254" y="351" width="120" height="80" as="geometry" />
        </mxCell>
        <mxCell id="8EH5IGFYuP0Oyn6NS1UA-13" value="Cliente" style="shape=umlActor;verticalLabelPosition=bottom;verticalAlign=top;html=1;outlineConnect=0;" parent="1" vertex="1">
          <mxGeometry x="-7" y="122" width="30" height="60" as="geometry" />
        </mxCell>
        <mxCell id="8EH5IGFYuP0Oyn6NS1UA-16" value="Gestión de despacho" style="ellipse;whiteSpace=wrap;html=1;" parent="1" vertex="1">
          <mxGeometry x="212" y="502" width="120" height="80" as="geometry" />
        </mxCell>
        <mxCell id="8EH5IGFYuP0Oyn6NS1UA-19" value="Área de limpieza" style="shape=umlActor;verticalLabelPosition=bottom;verticalAlign=top;html=1;outlineConnect=0;" parent="1" vertex="1">
          <mxGeometry x="759" y="114" width="30" height="60" as="geometry" />
        </mxCell>
        <mxCell id="8EH5IGFYuP0Oyn6NS1UA-20" value="" style="endArrow=none;html=1;rounded=0;entryX=0.5;entryY=0.5;entryDx=0;entryDy=0;entryPerimeter=0;strokeColor=#FFFF00;" parent="1" source="8EH5IGFYuP0Oyn6NS1UA-2" target="8EH5IGFYuP0Oyn6NS1UA-19" edge="1">
          <mxGeometry width="50" height="50" relative="1" as="geometry">
            <mxPoint x="558" y="275" as="sourcePoint" />
            <mxPoint x="608" y="225" as="targetPoint" />
          </mxGeometry>
        </mxCell>
        <mxCell id="8EH5IGFYuP0Oyn6NS1UA-21" value="" style="endArrow=none;html=1;rounded=0;exitX=0.5;exitY=0.5;exitDx=0;exitDy=0;exitPerimeter=0;strokeColor=#FF8000;" parent="1" source="8EH5IGFYuP0Oyn6NS1UA-13" target="8EH5IGFYuP0Oyn6NS1UA-4" edge="1">
          <mxGeometry width="50" height="50" relative="1" as="geometry">
            <mxPoint x="558" y="275" as="sourcePoint" />
            <mxPoint x="279.59489071088" y="292.48011588493785" as="targetPoint" />
          </mxGeometry>
        </mxCell>
        <mxCell id="8EH5IGFYuP0Oyn6NS1UA-22" value="" style="endArrow=none;html=1;rounded=0;exitX=0.5;exitY=0.5;exitDx=0;exitDy=0;exitPerimeter=0;strokeColor=#FF8000;" parent="1" source="8EH5IGFYuP0Oyn6NS1UA-13" target="8EH5IGFYuP0Oyn6NS1UA-1" edge="1">
          <mxGeometry width="50" height="50" relative="1" as="geometry">
            <mxPoint x="128" y="187" as="sourcePoint" />
            <mxPoint x="221" y="340" as="targetPoint" />
          </mxGeometry>
        </mxCell>
        <mxCell id="8EH5IGFYuP0Oyn6NS1UA-23" value="Área de facturación" style="shape=umlActor;verticalLabelPosition=bottom;verticalAlign=top;html=1;outlineConnect=0;" parent="1" vertex="1">
          <mxGeometry x="743" y="299" width="30" height="60" as="geometry" />
        </mxCell>
        <mxCell id="EemuT5XTlh5xnBEi4JDt-1" value="" style="endArrow=none;html=1;rounded=0;entryX=0.5;entryY=0.5;entryDx=0;entryDy=0;entryPerimeter=0;strokeColor=#33FF33;" parent="1" source="8EH5IGFYuP0Oyn6NS1UA-33" target="8EH5IGFYuP0Oyn6NS1UA-15" edge="1">
          <mxGeometry width="50" height="50" relative="1" as="geometry">
            <mxPoint x="413" y="578" as="sourcePoint" />
            <mxPoint x="407" y="703" as="targetPoint" />
          </mxGeometry>
        </mxCell>
        <mxCell id="8EH5IGFYuP0Oyn6NS1UA-26" value="" style="endArrow=none;html=1;rounded=0;entryX=0.5;entryY=0.5;entryDx=0;entryDy=0;entryPerimeter=0;strokeColor=#9933FF;" parent="1" source="8EH5IGFYuP0Oyn6NS1UA-4" target="8EH5IGFYuP0Oyn6NS1UA-23" edge="1">
          <mxGeometry width="50" height="50" relative="1" as="geometry">
            <mxPoint x="560" y="210" as="sourcePoint" />
            <mxPoint x="753" y="133" as="targetPoint" />
          </mxGeometry>
        </mxCell>
        <mxCell id="8EH5IGFYuP0Oyn6NS1UA-27" value="" style="endArrow=none;html=1;rounded=0;entryX=0.5;entryY=0.5;entryDx=0;entryDy=0;entryPerimeter=0;strokeColor=#33FF33;" parent="1" source="8EH5IGFYuP0Oyn6NS1UA-16" target="8EH5IGFYuP0Oyn6NS1UA-15" edge="1">
          <mxGeometry width="50" height="50" relative="1" as="geometry">
            <mxPoint x="570" y="220" as="sourcePoint" />
            <mxPoint x="763" y="143" as="targetPoint" />
          </mxGeometry>
        </mxCell>
        <mxCell id="8EH5IGFYuP0Oyn6NS1UA-28" value="" style="endArrow=none;html=1;rounded=0;exitX=0.5;exitY=0.5;exitDx=0;exitDy=0;exitPerimeter=0;strokeColor=#FF8000;" parent="1" source="8EH5IGFYuP0Oyn6NS1UA-13" target="8EH5IGFYuP0Oyn6NS1UA-16" edge="1">
          <mxGeometry width="50" height="50" relative="1" as="geometry">
            <mxPoint x="128" y="187" as="sourcePoint" />
            <mxPoint x="221" y="340" as="targetPoint" />
          </mxGeometry>
        </mxCell>
        <mxCell id="8EH5IGFYuP0Oyn6NS1UA-32" value="" style="endArrow=classic;html=1;rounded=0;dashed=1;dashPattern=8 8;" parent="1" source="8EH5IGFYuP0Oyn6NS1UA-1" target="8EH5IGFYuP0Oyn6NS1UA-2" edge="1">
          <mxGeometry width="50" height="50" relative="1" as="geometry">
            <mxPoint x="487" y="226" as="sourcePoint" />
            <mxPoint x="359.1164407084045" y="214.31953574457452" as="targetPoint" />
          </mxGeometry>
        </mxCell>
        <mxCell id="8EH5IGFYuP0Oyn6NS1UA-33" value="Iniciar Sesión" style="ellipse;whiteSpace=wrap;html=1;" parent="1" vertex="1">
          <mxGeometry x="217" y="57" width="120" height="80" as="geometry" />
        </mxCell>
        <mxCell id="EemuT5XTlh5xnBEi4JDt-3" value="Plataforma" style="ellipse;whiteSpace=wrap;html=1;" parent="1" vertex="1">
          <mxGeometry x="414" y="25" width="120" height="80" as="geometry" />
        </mxCell>
        <mxCell id="EemuT5XTlh5xnBEi4JDt-5" value="" style="endArrow=none;html=1;rounded=0;entryX=0.5;entryY=0.5;entryDx=0;entryDy=0;entryPerimeter=0;strokeColor=#33FFFF;" parent="1" source="EemuT5XTlh5xnBEi4JDt-3" target="EemuT5XTlh5xnBEi4JDt-4" edge="1">
          <mxGeometry width="50" height="50" relative="1" as="geometry">
            <mxPoint x="556" y="257" as="sourcePoint" />
            <mxPoint x="784" y="154" as="targetPoint" />
          </mxGeometry>
        </mxCell>
        <mxCell id="EemuT5XTlh5xnBEi4JDt-6" value="" style="endArrow=none;html=1;rounded=0;entryX=0.5;entryY=0.5;entryDx=0;entryDy=0;entryPerimeter=0;strokeColor=#33FFFF;" parent="1" source="8EH5IGFYuP0Oyn6NS1UA-33" target="EemuT5XTlh5xnBEi4JDt-4" edge="1">
          <mxGeometry width="50" height="50" relative="1" as="geometry">
            <mxPoint x="456" y="72" as="sourcePoint" />
            <mxPoint x="449" y="-49" as="targetPoint" />
          </mxGeometry>
        </mxCell>
        <mxCell id="EemuT5XTlh5xnBEi4JDt-7" value="" style="endArrow=none;html=1;rounded=0;exitX=0.5;exitY=0.5;exitDx=0;exitDy=0;exitPerimeter=0;strokeColor=#FF8000;" parent="1" source="8EH5IGFYuP0Oyn6NS1UA-13" target="8EH5IGFYuP0Oyn6NS1UA-33" edge="1">
          <mxGeometry width="50" height="50" relative="1" as="geometry">
            <mxPoint x="33" y="167" as="sourcePoint" />
            <mxPoint x="281" y="258" as="targetPoint" />
          </mxGeometry>
        </mxCell>
        <mxCell id="8EH5IGFYuP0Oyn6NS1UA-15" value="Encargado de despacho" style="shape=umlActor;verticalLabelPosition=bottom;verticalAlign=top;html=1;outlineConnect=0;" parent="1" vertex="1">
          <mxGeometry x="380" y="693" width="30" height="60" as="geometry" />
        </mxCell>
        <mxCell id="EemuT5XTlh5xnBEi4JDt-4" value="Administrador del sistema" style="shape=umlActor;verticalLabelPosition=bottom;verticalAlign=top;html=1;outlineConnect=0;" parent="1" vertex="1">
          <mxGeometry x="422" y="-119" width="30" height="60" as="geometry" />
        </mxCell>
        <mxCell id="EemuT5XTlh5xnBEi4JDt-8" value="" style="endArrow=none;html=1;rounded=0;entryX=0.5;entryY=0.5;entryDx=0;entryDy=0;entryPerimeter=0;strokeColor=#9933FF;" parent="1" source="8EH5IGFYuP0Oyn6NS1UA-33" target="8EH5IGFYuP0Oyn6NS1UA-23" edge="1">
          <mxGeometry width="50" height="50" relative="1" as="geometry">
            <mxPoint x="383" y="393" as="sourcePoint" />
            <mxPoint x="768" y="339" as="targetPoint" />
          </mxGeometry>
        </mxCell>
        <mxCell id="EemuT5XTlh5xnBEi4JDt-9" value="" style="endArrow=none;html=1;rounded=0;entryX=0.5;entryY=0.5;entryDx=0;entryDy=0;entryPerimeter=0;strokeColor=#9933FF;" parent="1" source="8EH5IGFYuP0Oyn6NS1UA-3" target="8EH5IGFYuP0Oyn6NS1UA-23" edge="1">
          <mxGeometry width="50" height="50" relative="1" as="geometry">
            <mxPoint x="383" y="393" as="sourcePoint" />
            <mxPoint x="768" y="339" as="targetPoint" />
          </mxGeometry>
        </mxCell>
        <mxCell id="EemuT5XTlh5xnBEi4JDt-10" value="" style="endArrow=classic;html=1;rounded=0;dashed=1;dashPattern=8 8;" parent="1" source="8EH5IGFYuP0Oyn6NS1UA-33" target="EemuT5XTlh5xnBEi4JDt-3" edge="1">
          <mxGeometry width="50" height="50" relative="1" as="geometry">
            <mxPoint x="394" y="278" as="sourcePoint" />
            <mxPoint x="446" y="279" as="targetPoint" />
          </mxGeometry>
        </mxCell>
        <mxCell id="ghJok0T495TV72HKHVQO-1" value="" style="endArrow=none;html=1;rounded=0;entryX=0.5;entryY=0.5;entryDx=0;entryDy=0;entryPerimeter=0;strokeColor=#FFFF00;" parent="1" source="8EH5IGFYuP0Oyn6NS1UA-33" target="8EH5IGFYuP0Oyn6NS1UA-19" edge="1">
          <mxGeometry width="50" height="50" relative="1" as="geometry">
            <mxPoint x="556" y="257" as="sourcePoint" />
            <mxPoint x="784" y="154" as="targetPoint" />
          </mxGeometry>
        </mxCell>
      </root>
    </mxGraphModel>
  </diagram>
</mxfile>
